<?xml version="1.0" encoding="UTF-8"?>
<svg version="1.1" xmlns="http://www.w3.org/2000/svg" width="512" height="512">
<path d="M0 0 C3.87739235 0.00915362 7.75471623 -0.00496963 11.63209438 -0.01591969 C19.20367928 -0.03360089 26.77510456 -0.02991171 34.34669542 -0.01826912 C40.50649818 -0.00919378 46.66625657 -0.00802841 52.82606411 -0.01236439 C53.70654388 -0.01297732 54.58702364 -0.01359025 55.49418461 -0.01422176 C57.28349385 -0.0155008 59.07280307 -0.01679766 60.86211228 -0.01811212 C77.59599309 -0.02948746 94.3297859 -0.01645224 111.06365228 0.00508934 C125.38682365 0.02295754 139.70986529 0.01985258 154.03303432 0.0014143 C170.71166203 -0.02004647 187.39021283 -0.0283891 204.06885242 -0.01613665 C205.85116353 -0.0148626 207.63347466 -0.01360512 209.41578579 -0.01236439 C210.73079482 -0.01143873 210.73079482 -0.01143873 212.07236969 -0.01049438 C218.21668653 -0.00705706 224.36095412 -0.0128347 230.50526333 -0.0222826 C238.00472788 -0.03356205 245.50402522 -0.03033871 253.0034709 -0.00915962 C256.82152177 0.00127154 260.639295 0.00561039 264.4573431 -0.00775623 C302.54074883 -0.13003033 302.54074883 -0.13003033 317.68342495 8.39789867 C318.66605312 8.92214428 318.66605312 8.92214428 319.66853237 9.45698071 C321.50376123 10.45097763 323.3152016 11.47647242 325.12092495 12.52289867 C325.9820187 13.01789867 326.84311245 13.51289867 327.73029995 14.02289867 C346.83291996 25.94510123 358.75754955 45.02082654 364.4295187 66.43696117 C365.54165721 71.40074321 366.24565982 76.11656635 366.25514603 81.20846462 C366.25960387 82.32399692 366.26406171 83.43952921 366.26865464 84.58886552 C366.2683781 86.41188789 366.2683781 86.41188789 366.26809597 88.27173901 C366.27177266 89.57090213 366.27544935 90.87006525 366.27923745 92.20859694 C366.28922506 95.80879498 366.29296903 99.40897635 366.29562676 103.00918627 C366.29953961 106.89494912 366.30911743 110.78069889 366.31783962 114.66645336 C366.33757924 124.04936273 366.34766833 133.43227313 366.35656741 142.81519806 C366.36095554 147.23996972 366.36632109 151.6647402 366.37155628 156.08951092 C366.38856816 170.81017972 366.40305967 185.5308478 366.41030502 200.25152493 C366.41221475 204.06952191 366.4141351 207.8875189 366.41609097 211.70551586 C366.41657471 212.65439799 366.41705845 213.60328012 366.41755684 214.58091626 C366.42584716 229.93287891 366.45116736 245.28476339 366.48367164 260.63669196 C366.51681244 276.41872357 366.53476022 292.20071556 366.53794926 307.98278213 C366.54010817 316.8353887 366.54876536 325.68788138 366.57441044 334.54045391 C366.5962138 342.08410257 366.60412093 349.62760966 366.59444366 357.17128626 C366.58992629 361.01357419 366.59163357 364.85557064 366.6112051 368.6978178 C366.795066 406.90505724 366.795066 406.90505724 358.24592495 422.08539867 C357.72167934 423.06802685 357.72167934 423.06802685 357.18684292 424.0705061 C356.19284599 425.90573496 355.1673512 427.71717532 354.12092495 429.52289867 C353.62592495 430.38399242 353.13092495 431.24508617 352.62092495 432.13227367 C341.44960085 450.03178161 322.56732359 463.29095764 302.12092495 468.52289867 C293.96234661 470.39386657 286.12090936 470.81186177 277.77081203 470.79032421 C276.46737679 470.79485532 275.16394155 470.79938644 273.82100827 470.80405486 C270.2320826 470.81620019 266.64325074 470.81603448 263.05430925 470.81366611 C259.17203541 470.81325577 255.28979079 470.82431774 251.40753078 470.83378124 C243.81163773 470.85034639 236.21577574 470.85588878 228.61986613 470.857006 C222.43988178 470.85795874 216.25990761 470.86208032 210.07992649 470.86840725 C192.5280838 470.88600855 174.97626549 470.89524803 157.42441391 470.8937463 C156.47952378 470.89366639 155.53463366 470.89358648 154.5611105 470.89350414 C153.14202856 470.8933815 153.14202856 470.8933815 151.69427831 470.89325638 C136.37496127 470.89244412 121.0557427 470.91156956 105.73645412 470.93978088 C89.97685903 470.96857213 74.21731186 470.9823177 58.45768982 470.98059332 C49.62193201 470.9799315 40.7862774 470.98533192 31.9505434 471.00694942 C24.42530698 471.02524374 16.90022052 471.02944145 9.37497138 471.01593058 C5.54278076 471.00944182 1.71087712 471.00913339 -2.12128544 471.02663708 C-40.27365617 471.19004369 -40.27365617 471.19004369 -55.44157505 462.64789867 C-56.42420322 462.12365307 -56.42420322 462.12365307 -57.42668247 461.58881664 C-59.26191133 460.59481972 -61.0733517 459.56932493 -62.87907505 458.52289867 C-64.17071568 457.78039867 -64.17071568 457.78039867 -65.48845005 457.02289867 C-84.91037309 444.90141479 -97.72845554 424.60945352 -102.87907505 402.52289867 C-104.10737632 395.90438543 -104.02430873 389.3498929 -104.01951694 382.63361645 C-104.02248807 381.33148221 -104.02545919 380.02934796 -104.02852035 378.68775511 C-104.0365594 375.08402216 -104.03837819 371.48030917 -104.03911781 367.87656832 C-104.04097381 363.98542882 -104.04852395 360.09429956 -104.05525303 356.20316601 C-104.06881557 347.69871378 -104.07485802 339.19426627 -104.07926369 330.68980503 C-104.08203002 325.37473355 -104.08626812 320.05966388 -104.09076786 314.74459362 C-104.10295855 300.01529842 -104.11325778 285.28600466 -104.11664295 270.55670452 C-104.11686252 269.6145882 -104.11708208 268.67247188 -104.1173083 267.70180658 C-104.11763572 266.28533443 -104.11763572 266.28533443 -104.11796975 264.84024668 C-104.11841321 262.92684682 -104.11885977 261.01344697 -104.11930943 259.10004711 C-104.11953086 258.15094355 -104.11975228 257.20183999 -104.11998042 256.22397572 C-104.1239255 240.85713236 -104.14137154 225.49033651 -104.16466895 210.12351149 C-104.18842046 194.32903224 -104.20084656 178.53457679 -104.20201087 162.7400794 C-104.20292557 153.87922261 -104.20862607 145.01842769 -104.22683048 136.15758801 C-104.24228293 128.6098672 -104.24732179 121.0622274 -104.23909238 113.51449376 C-104.23520381 109.66856972 -104.23602691 105.82280854 -104.25014973 101.97690487 C-104.26536913 97.79383755 -104.25696913 93.61113214 -104.24656773 89.42805004 C-104.25462413 88.23141405 -104.26268054 87.03477805 -104.27098107 85.80188036 C-104.20480889 74.35216014 -102.57812702 62.70832826 -97.62907505 52.27289867 C-97.3238895 51.60870922 -97.01870396 50.94451977 -96.70427036 50.26020336 C-86.46994743 28.51884107 -69.34543692 12.90716325 -46.87907505 4.52289867 C-31.5596845 -0.4220168 -15.92969657 -0.05576837 0 0 Z M113.3826437 117.54633617 C109.96013317 122.90791614 109.83945325 128.23870034 109.89387417 134.37397289 C109.89358212 135.24291683 109.89329006 136.11186077 109.89298916 137.00713634 C109.89437657 139.86405642 109.90991002 142.72071196 109.92561245 145.57758617 C109.92934467 147.5644113 109.93219066 149.55123828 109.93418789 151.53806591 C109.94180786 156.75606437 109.96144232 161.97395072 109.98359585 167.19190502 C110.00408952 172.52097081 110.01319713 177.8500548 110.0232687 183.17914867 C110.04468974 193.62711448 110.07880594 204.07499724 110.12092495 214.52289867 C108.47507412 214.51290592 108.47507412 214.51290592 106.79597378 214.5027113 C96.43833165 214.44180604 86.08072602 214.39688083 75.72294521 214.36746216 C70.39833499 214.35182911 65.07386973 214.33063389 59.74934292 214.29658031 C54.60759468 214.26390279 49.4659856 214.24602791 44.3241415 214.23826694 C42.36580625 214.2327385 40.40747831 214.22194284 38.44920254 214.2057085 C35.69898632 214.18382269 32.94933972 214.1809364 30.19904995 214.1823225 C28.99386967 214.16614376 28.99386967 214.16614376 27.76434231 214.14963818 C21.29447274 214.18475228 15.66492761 215.32526257 10.6248312 219.67914867 C9.98416714 220.45258617 9.34350307 221.22602367 8.68342495 222.02289867 C8.02471401 222.79633617 7.36600307 223.56977367 6.6873312 224.36664867 C3.01904557 229.41625881 3.57786537 235.54924333 4.12092495 241.52289867 C5.81555012 247.09678629 10.29347521 251.44134479 15.12092495 254.52289867 C20.18882372 256.62208282 24.5869071 256.79771614 29.97199917 256.74994946 C30.84094311 256.75024151 31.70988705 256.75053356 32.60516262 256.75083447 C35.46208269 256.74944705 38.31873823 256.7339136 41.17561245 256.71821117 C43.16243758 256.71447895 45.14926455 256.71163297 47.13609219 256.70963573 C52.35409065 256.70201576 57.57197699 256.6823813 62.7899313 256.66022778 C68.11899709 256.6397341 73.44808107 256.63062649 78.77717495 256.62055492 C89.22514076 256.59913388 99.67302351 256.56501768 110.12092495 256.52289867 C110.11426311 257.62013256 110.10760128 258.71736645 110.10073757 259.84784985 C110.03983232 270.20549198 109.99490711 280.56309761 109.96548843 290.92087841 C109.94985539 296.24548864 109.92866016 301.5699539 109.89460659 306.89448071 C109.86192907 312.03622894 109.84405418 317.17783803 109.83629322 322.31968212 C109.83076478 324.27801738 109.81996911 326.23634532 109.80373478 328.19462109 C109.78184896 330.94483731 109.77896268 333.6944839 109.78034878 336.44477367 C109.76956295 337.2482272 109.75877712 338.05168072 109.74766445 338.87948132 C109.78277855 345.34935088 110.92328885 350.97889601 115.27717495 356.01899242 C116.05061245 356.65965649 116.82404995 357.30032055 117.62092495 357.96039867 C118.39436245 358.61910961 119.16779995 359.27782055 119.96467495 359.95649242 C125.01428509 363.62477805 131.1472696 363.06595825 137.12092495 362.52289867 C142.69481257 360.8282735 147.03937107 356.35034841 150.12092495 351.52289867 C152.22010909 346.4549999 152.39574242 342.05691653 152.34797573 336.67182446 C152.34826778 335.80288052 152.34855984 334.93393658 152.34886074 334.038661 C152.34747333 331.18174093 152.33193988 328.32508539 152.31623745 325.46821117 C152.31250523 323.48138604 152.30965924 321.49455907 152.30766201 319.50773144 C152.30004204 314.28973297 152.28040758 309.07184663 152.25825405 303.85389233 C152.23776038 298.52482654 152.22865276 293.19574255 152.2185812 287.86664867 C152.19716016 277.41868287 152.16304396 266.97080011 152.12092495 256.52289867 C153.76677578 256.53289143 153.76677578 256.53289143 155.44587612 256.54308605 C165.80351825 256.60399131 176.16112388 256.64891651 186.51890469 256.67833519 C191.84351491 256.69396824 197.16798017 256.71516346 202.49250698 256.74921703 C207.63425522 256.78189456 212.7758643 256.79976944 217.9177084 256.8075304 C219.87604365 256.81305884 221.83437159 256.82385451 223.79264736 256.84008884 C226.54286358 256.86197466 229.29251018 256.86486094 232.04279995 256.86347485 C232.84625347 256.87426067 233.64970699 256.8850465 234.47750759 256.89615917 C240.94737716 256.86104507 246.57692229 255.72053478 251.6170187 251.36664867 C252.25768276 250.59321117 252.89834682 249.81977367 253.55842495 249.02289867 C254.21713589 248.24946117 254.87584682 247.47602367 255.5545187 246.67914867 C259.22280433 241.62953853 258.66398453 235.49655402 258.12092495 229.52289867 C256.42629978 223.94901105 251.94837469 219.60445256 247.12092495 216.52289867 C242.05302617 214.42371453 237.6549428 214.2480812 232.26985073 214.29584789 C231.40090679 214.29555584 230.53196285 214.29526379 229.63668728 214.29496288 C226.77976721 214.2963503 223.92311167 214.31188374 221.06623745 214.32758617 C219.07941232 214.3313184 217.09258534 214.33416438 215.10575771 214.33616161 C209.88775925 214.34378159 204.66987291 214.36341604 199.4519186 214.38556957 C194.12285281 214.40606325 188.79376883 214.41517086 183.46467495 214.42524242 C173.01670914 214.44666346 162.56882639 214.48077967 152.12092495 214.52289867 C152.12758678 213.42566479 152.13424862 212.3284309 152.14111233 211.1979475 C152.20201758 200.84030537 152.24694279 190.48269974 152.27636147 180.12491894 C152.29199451 174.80030871 152.31318974 169.47584345 152.34724331 164.15131664 C152.37992083 159.00956841 152.39779572 153.86795932 152.40555668 148.72611523 C152.41108512 146.76777997 152.42188078 144.80945203 152.43811512 142.85117626 C152.46000093 140.10096004 152.46288722 137.35131344 152.46150112 134.60102367 C152.47228695 133.79757015 152.48307278 132.99411663 152.49418545 132.16631603 C152.45907135 125.69644647 151.31856105 120.06690134 146.96467495 115.02680492 C146.19123745 114.38614086 145.41779995 113.7454768 144.62092495 113.08539867 C143.84748745 112.42668774 143.07404995 111.7679768 142.27717495 111.08930492 C132.16091263 103.7403535 120.49859804 109.31912321 113.3826437 117.54633617 Z " fill="#000000" transform="translate(124.879075050354,20.47710132598877)"/>
</svg>
