<?xml version="1.0" encoding="UTF-8"?>
<svg version="1.1" xmlns="http://www.w3.org/2000/svg" width="320" height="412">
<path d="M0 0 C0.95261719 0.44859375 1.90523437 0.8971875 2.88671875 1.359375 C15.47721004 7.75812991 26.85150458 17.27435856 37 27 C37.8559375 27.79277344 38.711875 28.58554688 39.59375 29.40234375 C58.71119316 47.6682916 71.98992064 70.73548511 82 95 C82.28568848 95.67949707 82.57137695 96.35899414 82.86572266 97.05908203 C93.35273671 122.23676557 98.18336473 149.75018814 98.5625 176.9375 C98.60286377 178.64341309 98.60286377 178.64341309 98.64404297 180.38378906 C98.60742215 188.1403151 98.60742215 188.1403151 95.85546875 192.03515625 C72.35028912 208.20903498 41.40691949 210.43586724 13.8125 213.25 C13.00037048 213.33299347 12.18824097 213.41598694 11.35150146 213.50149536 C8.97055704 213.74139835 6.5890449 213.97409757 4.20703125 214.203125 C3.19230995 214.30278816 3.19230995 214.30278816 2.15708923 214.40446472 C-11.81467752 215.70161079 -25.7645998 216.16937211 -39.7890625 216.203125 C-40.60739941 216.20595238 -41.42573631 216.20877975 -42.26887131 216.21169281 C-46.61919199 216.22655626 -50.96948075 216.23586054 -55.31982422 216.24023438 C-58.81732907 216.24456933 -62.3145803 216.25828406 -65.81201172 216.28125 C-183.62939845 217.0382814 -183.62939845 217.0382814 -219.80078125 192.06640625 C-223.23321523 187.28050807 -222.69843109 182.6824198 -222.5625 176.9375 C-222.54590332 175.74737305 -222.52930664 174.55724609 -222.51220703 173.33105469 C-221.97344545 152.03182731 -218.0464663 131.38105758 -212 111 C-211.649375 109.80117188 -211.29875 108.60234375 -210.9375 107.3671875 C-208.61060927 99.94052793 -205.39699441 92.99103026 -202 86 C-201.71141113 85.39172363 -201.42282227 84.78344727 -201.12548828 84.15673828 C-193.78892118 68.69400059 -185.42697244 53.82451583 -174 41 C-173.28328125 40.175 -172.5665625 39.35 -171.828125 38.5 C-169.59094165 35.96135222 -167.30655488 33.47570224 -165 31 C-164.2265625 30.14921875 -163.453125 29.2984375 -162.65625 28.421875 C-119.82245424 -16.79157608 -55.15403067 -26.21000184 0 0 Z " fill="#000000" transform="translate(222,196)"/>
<path d="M0 0 C1.06992188 0.350625 2.13984375 0.70125 3.2421875 1.0625 C25.33801282 9.32691259 41.48653877 27.58559095 51.49609375 48.37109375 C60.03580392 68.97730349 61.04361453 93.5541994 52.625 114.375 C51.76726353 116.25795994 50.89311086 118.13355874 50 120 C49.63132813 120.83789062 49.26265625 121.67578125 48.8828125 122.5390625 C39.55791618 142.79659588 21.90162589 157.58166105 1.296875 165.40625 C-24.05751084 174.4369767 -47.95003706 172.07196868 -72.3125 160.625 C-77.35589232 157.97577924 -81.66450764 154.6747752 -86 151 C-86.8146875 150.33097656 -87.629375 149.66195312 -88.46875 148.97265625 C-105.56007526 134.38700367 -115.42295199 114.15779596 -118 92 C-119.02525343 75.72635902 -117.08996319 60.81674942 -110 46 C-109.63132812 45.16210938 -109.26265625 44.32421875 -108.8828125 43.4609375 C-100.45015686 25.14172007 -83.85166249 9.40790681 -65 2 C-43.9492401 -5.4511623 -21.44369747 -7.03983157 0 0 Z " fill="#000000" transform="translate(190,4)"/>
</svg>
