<?xml version="1.0" encoding="UTF-8"?>
<svg version="1.1" xmlns="http://www.w3.org/2000/svg" width="512" height="512">
<path d="M0 0 C0.68255859 0.1556543 1.36511719 0.31130859 2.06835938 0.47167969 C19.73609901 4.64299805 36.72949051 12.80083376 51 24 C51.5352832 24.41862305 52.07056641 24.83724609 52.62207031 25.26855469 C80.89790064 47.61424602 98.26583768 79.09324889 103.53833008 114.62817383 C104.26628382 121.33696543 104.03634769 128.07609022 103.9547081 134.81250381 C103.90255546 139.90947606 103.90895197 145.00680956 103.90334892 150.10400581 C103.89510897 154.56861752 103.86702561 159.03149244 103.79785156 163.49560547 C103.73171956 167.83801527 103.71936818 172.17766008 103.74310684 176.52047348 C103.74249822 178.16713574 103.72251424 179.81391463 103.68233871 181.46008682 C103.56516291 186.51427847 103.6017012 191.11636133 105 196 C108.27147635 199.39918794 111.72156765 201.12615426 116 203 C119.55565014 205.78673497 122.77983103 208.83359011 126 212 C126.69996094 212.68707031 127.39992188 213.37414062 128.12109375 214.08203125 C144.14606377 230.91918299 149.32562351 253.07856599 149.2746582 275.74072266 C149.2823246 277.54121567 149.2823246 277.54121567 149.29014587 279.37808228 C149.30155849 282.63059918 149.30413223 285.88295571 149.30158257 289.13548708 C149.30050113 291.87318937 149.3054262 294.61086905 149.310188 297.34856641 C149.32122988 303.82240186 149.32175188 310.29617926 149.31567383 316.77001953 C149.30964929 323.39387809 149.32191854 330.01752341 149.3432439 336.64134562 C149.36100845 342.37520412 149.36683785 348.10899569 149.36360615 353.84288061 C149.36181533 357.24657655 149.36420307 360.65012065 149.37832069 364.05379105 C149.49069195 398.25126031 144.48376104 426.73787345 120.0625 452.3125 C98.77385886 472.50291759 73.23211748 479.31997964 44.63378906 479.2746582 C42.80578403 479.27901351 40.97778082 479.28419937 39.14978027 479.29014587 C34.21566882 479.3034606 29.28163433 479.30412287 24.34750843 479.30158257 C20.21282207 479.30050751 16.07815093 479.30540998 11.94346786 479.310188 C2.17942255 479.32125765 -7.58458428 479.32173524 -17.34863281 479.31567383 C-27.38470142 479.30963881 -37.42062967 479.32193895 -47.45667434 479.3432439 C-56.10593608 479.36092237 -64.75515341 479.36685136 -73.40443254 479.36360615 C-78.55575015 479.36180273 -83.70696767 479.36433448 -88.85826874 479.37832069 C-93.70769454 479.39099617 -98.5569034 479.38886409 -103.40632629 479.37590981 C-105.17342964 479.37356529 -106.94054872 479.37620118 -108.70763397 479.38453293 C-138.46730378 479.51459373 -163.46715927 470.13796486 -184.75 449.30859375 C-203.89403753 429.25988372 -211.13409153 403.75362081 -211.16113281 376.68164062 C-211.16609772 375.47868347 -211.17106262 374.27572632 -211.17617798 373.03631592 C-211.18821465 369.75894663 -211.19572625 366.48161286 -211.20018864 363.20422554 C-211.20313799 361.14718995 -211.2072462 359.0901597 -211.21169281 357.03312683 C-211.22534213 350.56982786 -211.23502019 344.10654138 -211.2388947 337.64322901 C-211.24336341 330.23352236 -211.26086671 322.82400129 -211.2898953 315.41435099 C-211.311665 309.65343824 -211.32160712 303.8925771 -211.32293582 298.13162374 C-211.32397338 294.70667944 -211.32965246 291.28191012 -211.34775543 287.85700989 C-211.4776739 258.99281636 -208.71712315 233.36846087 -187.6953125 211.69140625 C-178.67631741 202.68548217 -178.67631741 202.68548217 -174.46629333 200.96391296 C-171.35993766 199.64197977 -169.35167349 198.44186829 -167 196 C-165.52550594 190.50152166 -165.76738064 185.11221684 -165.91015625 179.45703125 C-165.91399435 177.80718905 -165.91296735 176.15732911 -165.90733337 174.50749207 C-165.90352015 170.15883849 -165.95670267 165.81283752 -166.0246582 161.46478271 C-166.12324122 154.55522592 -166.1344308 147.64501432 -166.14742851 140.734869 C-166.15973362 138.35139336 -166.19556854 135.96928097 -166.2358551 133.58613586 C-166.58208347 103.53737406 -157.6788117 73.80142895 -139 50 C-138.58137695 49.4647168 -138.16275391 48.92943359 -137.73144531 48.37792969 C-115.18054246 19.84242845 -82.51484239 1.48824246 -46.32568359 -2.80151367 C-30.84870862 -4.12240184 -15.1259546 -3.57718073 0 0 Z M-114.90625 54.6015625 C-137.23315967 80.17753739 -145.23586074 109.81228625 -145.09765625 143.296875 C-145.0962413 144.61165833 -145.09482635 145.92644165 -145.09336853 147.28106689 C-145.08959701 150.73329663 -145.07981433 154.18548257 -145.06866455 157.63769531 C-145.05833332 161.17772835 -145.05384613 164.71776865 -145.04882812 168.2578125 C-145.03818578 175.17189328 -145.02076403 182.08594278 -145 189 C-144.43778748 188.92931368 -143.87557495 188.85862736 -143.29632568 188.78579903 C-133.54956012 187.7231876 -123.80592965 187.85949915 -114.015625 187.87060547 C-112.00231902 187.86924861 -109.98901328 187.86746707 -107.97570801 187.86529541 C-102.53363938 187.86075501 -97.09158981 187.86249664 -91.64952087 187.8656745 C-85.93984935 187.86821566 -80.2301794 187.86585567 -74.52050781 187.86428833 C-64.93424183 187.86247176 -55.34798356 187.8648595 -45.76171875 187.86962891 C-34.69690457 187.87507053 -23.63210881 187.87330752 -12.56729507 187.8678025 C-3.04765796 187.86325678 6.47197363 187.86262797 15.99161148 187.86524117 C21.66868644 187.86679591 27.34575275 187.86701976 33.02282715 187.86370468 C38.36134194 187.86080475 43.69983309 187.86284053 49.03834534 187.86859894 C50.99137839 187.86991518 52.94441344 187.86955183 54.89744568 187.86733627 C73.83616135 187.84784132 73.83616135 187.84784132 83 189 C83.04594822 181.48787062 83.0821445 173.97577288 83.10362434 166.4635334 C83.11394703 162.97319401 83.12788792 159.48295654 83.15087891 155.99267578 C83.40069164 117.00312515 78.52864672 84.03061997 52 54 C51.40058594 53.31679687 50.80117188 52.63359375 50.18359375 51.9296875 C30.39531873 30.81649558 0.79491531 19.18597312 -27.71875 17.875 C-60.75420348 17.16456014 -92.02491004 30.87623869 -114.90625 54.6015625 Z M-73.8125 257.6875 C-77.30980947 264.49805001 -74.23296784 274.30153473 -73.14804077 281.56503296 C-72.80656632 283.85224408 -72.47234508 286.14041624 -72.13989258 288.42895508 C-71.43290748 293.28690572 -70.7171182 298.14353623 -70 303 C-69.16829914 308.63243985 -68.34031704 314.26537463 -67.52182007 319.89974976 C-67.19405892 322.14261732 -66.85951186 324.38440281 -66.5246582 326.6262207 C-63.95972456 344.06508769 -63.95972456 344.06508769 -66.171875 348.1796875 C-66.69265625 348.73914063 -67.2134375 349.29859375 -67.75 349.875 C-75.23816734 358.8501793 -76.75218619 369.64756029 -76 381 C-73.88546394 394.02769248 -67.3064335 405.0084742 -56.6171875 412.71875 C-45.57383069 419.78095937 -34.13601846 421.78139834 -21.1328125 419.49609375 C-9.59345612 416.35063056 0.78365247 409.41744994 7.3125 399.3125 C13.83009553 387.45737498 16.01128972 375.54139565 12.4375 362.4375 C10.93595257 357.85669227 9.02891471 354.43818966 6.1875 350.5625 C3.2755831 346.2691912 2.6527635 343.7147383 3.17163086 338.56567383 C3.2924704 337.33184967 3.41330994 336.09802551 3.53781128 334.82681274 C4.2822525 328.66301636 5.12941623 322.5241498 6.06640625 316.38671875 C6.26740604 315.0383297 6.46774468 313.68984195 6.66746521 312.34126282 C7.39944309 307.40728927 8.14176212 302.47488843 8.88623047 297.54278564 C9.51984598 293.3440667 10.14822037 289.14463256 10.76930046 284.9440403 C11.05888202 282.99973779 11.35606922 281.05657284 11.65345764 279.1134491 C13.83990328 268.43820124 13.83990328 268.43820124 11.99513245 258.16581726 C9.87132263 255.46025649 8.27965611 254.0932187 5 253 C2.71157658 252.89498814 0.42019232 252.8513075 -1.87060547 252.83886719 C-2.91260101 252.83141983 -2.91260101 252.83141983 -3.97564697 252.82382202 C-6.27283724 252.80922171 -8.56995846 252.80240216 -10.8671875 252.796875 C-12.46517946 252.79112201 -14.0631714 252.78536429 -15.66116333 252.77960205 C-19.01190512 252.76909828 -22.36262297 252.76325146 -25.71337891 252.75976562 C-30.00301716 252.75428067 -34.29233804 252.7302502 -38.58187675 252.70179367 C-41.88303549 252.68315355 -45.18411795 252.67796098 -48.48532486 252.67642975 C-50.06654725 252.67340603 -51.64776839 252.66538696 -53.22893906 252.65224457 C-55.44307238 252.63515403 -57.65643261 252.63707116 -59.87060547 252.64355469 C-61.12952606 252.63990906 -62.38844666 252.63626343 -63.68551636 252.63250732 C-68.08294225 253.12007099 -70.62148775 254.71655756 -73.8125 257.6875 Z " fill="#000000" transform="translate(287,18)"/>
<path d="M0 0 C15.18 0 30.36 0 46 0 C44.5985132 11.60119631 43.13307917 23.18074771 41.46484375 34.74609375 C41.19090466 36.65779432 40.91697899 38.56949681 40.64306641 40.48120117 C40.2317487 43.34907531 39.81747342 46.21636075 39.39373779 49.08242798 C36.77745436 63.99263549 36.77745436 63.99263549 37 79 C39.10387764 81.85393478 39.10387764 81.85393478 42 84 C47.0051954 90.49822243 49.3773594 96.7864238 48.875 105 C47.76954364 113.11082029 44.48481545 118.39026906 38.1328125 123.5234375 C31.90013116 127.83837074 25.49595215 128.99794824 18 128 C10.80450501 126.19305956 5.50093175 122.91765957 1 117 C-2.95310581 110.01617974 -3.94505658 102.55168879 -1.875 94.8125 C-0.06702983 89.53787144 2.59281019 85.36588998 6.59375 81.43359375 C9.00298004 78.97751757 9.00677523 77.86467377 9.18554688 74.29394531 C9.10445496 67.5616408 8.00973307 60.94515601 7.03125 54.296875 C6.82881868 52.88691351 6.6270481 51.47685702 6.42590332 50.06671143 C5.89854191 46.37886079 5.36430766 42.69204378 4.82794189 39.00549316 C3.9682139 33.09252307 3.11634699 27.17843523 2.26963806 21.26358795 C1.97371507 19.20639118 1.67317452 17.14990664 1.37219238 15.09344482 C1.10191223 13.21559296 1.10191223 13.21559296 0.82617188 11.29980469 C0.66628784 10.20110046 0.50640381 9.10239624 0.3416748 7.97039795 C0 5 0 5 0 0 Z " fill="#000000" transform="translate(233,291)"/>
</svg>
