<?xml version="1.0" encoding="UTF-8"?>
<svg version="1.1" xmlns="http://www.w3.org/2000/svg" width="512" height="512">
<path d="M0 0 C3.55773891 0.00478087 7.11542632 -0.00782112 10.67314804 -0.01801741 C17.62234006 -0.03511586 24.5714413 -0.03606413 31.52064887 -0.03080451 C37.17562418 -0.02674456 42.83057289 -0.02822789 48.48554695 -0.03355277 C49.29384958 -0.03430119 50.10215221 -0.03504961 50.93494886 -0.03582071 C52.57761342 -0.03735237 54.22027798 -0.03889072 55.86294254 -0.04043568 C71.22909896 -0.05412847 86.5952043 -0.04874589 101.96135952 -0.03725047 C115.97991981 -0.02732276 129.99834802 -0.04025651 144.01688794 -0.06418466 C158.45566836 -0.08864199 172.89438743 -0.09816721 187.33318812 -0.09153193 C195.42163275 -0.08805424 203.50997594 -0.09017514 211.59840477 -0.10778296 C218.4841407 -0.12258833 225.36970373 -0.12303269 232.25543658 -0.10571205 C235.75969592 -0.09726732 239.26364751 -0.09488952 242.76788986 -0.1103636 C275.3424122 -0.22412692 306.53602827 6.0210218 331.56583297 28.40683305 C332.78786422 29.45097368 332.78786422 29.45097368 334.03458297 30.51620805 C356.99875644 50.50354422 373.33914841 78.80744069 376.56583297 109.40683305 C377.08119853 118.20619567 376.99266143 127.02999403 376.97266603 135.84100008 C376.96788516 139.39873899 376.98048714 142.9564264 376.99068344 146.51414812 C377.00778188 153.46334014 377.00873015 160.41244138 377.00347053 167.36164895 C376.99941059 173.01662426 377.00089391 178.67157297 377.00621879 184.32654703 C377.00696721 185.13484966 377.00771564 185.94315229 377.00848674 186.77594894 C377.01001839 188.4186135 377.01155674 190.06127807 377.0131017 191.70394262 C377.0267945 207.07009904 377.02141191 222.43620438 377.00991649 237.8023596 C376.99998878 251.82091989 377.01292253 265.8393481 377.03685068 279.85788802 C377.06130802 294.29666844 377.07083323 308.73538751 377.06419796 323.1741882 C377.06072026 331.26263283 377.06284117 339.35097602 377.08044899 347.43940485 C377.09525436 354.32514078 377.09569872 361.21070381 377.07837807 368.09643666 C377.06993335 371.600696 377.06755554 375.10464759 377.08302963 378.60888994 C377.19679294 411.18341228 370.95164422 442.37702835 348.56583297 467.40683305 C347.86973922 468.22152055 347.17364547 469.03620805 346.45645797 469.87558305 C326.46912181 492.83975652 298.16522534 509.18014849 267.56583297 512.40683305 C258.76647035 512.92219861 249.94267199 512.83366151 241.13166595 512.81366611 C237.57392703 512.80888524 234.01623963 512.82148722 230.45851791 512.83168352 C223.50932589 512.84878196 216.56022464 512.84973023 209.61101707 512.84447061 C203.95604177 512.84041067 198.30109306 512.84189399 192.646119 512.84721887 C191.83781637 512.84796729 191.02951374 512.84871572 190.19671709 512.84948682 C188.55405252 512.85101847 186.91138796 512.85255682 185.26872341 512.85410178 C169.90256699 512.86779458 154.53646164 512.862412 139.17030642 512.85091657 C125.15174614 512.84098886 111.13331793 512.85392261 97.114778 512.87785076 C82.67599759 512.9023081 68.23727852 512.91183331 53.79847783 512.90519804 C45.71003319 512.90172034 37.62169001 512.90384125 29.53326118 512.92144907 C22.64752524 512.93625444 15.76196221 512.9366988 8.87622937 512.91937815 C5.37197003 512.91093343 1.86801843 512.90855562 -1.63622391 512.92402971 C-40.62586481 513.06019719 -73.30950629 502.17092122 -101.43416703 474.40683305 C-126.16758952 449.7131749 -135.78564025 417.10891172 -135.85186112 382.96954668 C-135.84871101 380.97058566 -135.84553645 378.97162437 -135.84100008 376.97266603 C-135.83621921 373.41492711 -135.8488212 369.85723971 -135.85901749 366.29951799 C-135.87611594 359.35032597 -135.87706421 352.40122472 -135.87180459 345.45201715 C-135.86774464 339.79704185 -135.86922797 334.14209314 -135.87455285 328.48711908 C-135.87530127 327.67881645 -135.87604969 326.87051382 -135.87682079 326.03771717 C-135.87835245 324.3950526 -135.8798908 322.75238804 -135.88143576 321.10972349 C-135.89512855 305.74356707 -135.88974597 290.37746172 -135.87825055 275.0113065 C-135.86832284 260.99274622 -135.88125659 246.97431801 -135.90518474 232.95577808 C-135.92964207 218.51699767 -135.93916729 204.0782786 -135.93253201 189.63947791 C-135.92905432 181.55103327 -135.93117522 173.46269009 -135.94878304 165.37426126 C-135.96358841 158.48852532 -135.96403277 151.60296229 -135.94671213 144.71722945 C-135.9382674 141.21297011 -135.9358896 137.70901851 -135.95136368 134.20477617 C-136.065127 101.63025383 -129.81997828 70.43663776 -107.43416703 45.40683305 C-106.73807328 44.59214555 -106.04197953 43.77745805 -105.32479203 42.93808305 C-77.33496576 10.77955925 -41.52187444 -0.09422835 0 0 Z M-18.74666703 105.53183305 C-19.38217484 106.07066118 -20.01768265 106.6094893 -20.67244828 107.16464555 C-25.83294666 113.73255258 -25.86587783 120.88259475 -25.81511796 128.86899126 C-25.81979793 130.00540968 -25.8244779 131.14182811 -25.82929969 132.31268346 C-25.84124174 136.11111333 -25.83179517 139.90918191 -25.82235062 143.7076143 C-25.82476671 146.43470315 -25.83165044 149.16177678 -25.8382808 151.8888582 C-25.85160169 158.52130117 -25.84874775 165.15364214 -25.84004287 171.78608906 C-25.83326025 177.17771478 -25.83235211 182.56931196 -25.83561432 187.96094072 C-25.83607402 188.72909744 -25.83653372 189.49725416 -25.83700735 190.28868836 C-25.83796655 191.84931625 -25.83893919 193.40994413 -25.83992513 194.97057199 C-25.8484742 209.59527252 -25.83865247 224.21991657 -25.82252403 238.84460783 C-25.80912128 251.38588566 -25.81144951 263.92708017 -25.82528031 276.46835649 C-25.84134465 291.04169369 -25.84765027 305.61498143 -25.83844352 320.18832624 C-25.8374879 321.74312595 -25.83654478 323.29792566 -25.83561432 324.85272539 C-25.8351515 325.61766244 -25.83468867 326.3825995 -25.83421182 327.17071646 C-25.83162449 332.55417246 -25.83598737 337.93759701 -25.84305298 343.32104814 C-25.85147768 349.88411525 -25.84916752 356.44707475 -25.83321075 363.01012957 C-25.82534092 366.35701856 -25.82383634 369.70358025 -25.83215821 373.05049074 C-25.84035538 376.68206424 -25.83007328 380.31313348 -25.81511796 383.94467485 C-25.82181012 384.99759879 -25.82850229 386.05052272 -25.83539724 387.13535345 C-25.78000194 394.07020028 -25.10297389 400.01016978 -20.67244828 405.64902055 C-19.71918656 406.45726274 -19.71918656 406.45726274 -18.74666703 407.28183305 C-18.12404984 407.83612993 -17.50143265 408.3904268 -16.85994828 408.96152055 C-9.58837935 413.29401734 -1.17966354 412.69773367 6.99918258 412.68149126 C8.34535141 412.68584528 9.69151777 412.69103072 11.03768051 412.69697893 C14.67408695 412.71030512 18.31038905 412.71095482 21.94681513 412.70841563 C24.99090374 412.70734169 28.03497159 412.71224 31.07905573 412.71702105 C38.26436137 412.72809391 45.44961473 412.72856601 52.63492477 412.72250688 C60.02969554 412.71646672 67.42427605 412.7287842 74.81901437 412.75007695 C81.18530565 412.7677294 87.55153656 412.77368863 93.91785139 412.77043921 C97.71253603 412.7686322 101.50708489 412.77120414 105.3017472 412.78515375 C108.87153522 412.79778725 112.44102788 412.79573634 116.01081169 412.78274286 C117.93296865 412.77927405 119.85513486 412.79051389 121.77725875 412.80231035 C129.88484279 412.7533681 137.30280946 412.13596381 143.94083297 407.09433305 C148.25876325 402.67359491 149.74439584 399.15605634 150.06583297 393.03183305 C149.86522273 386.01047442 147.02903012 381.9366031 142.25333297 377.03183305 C135.28771642 372.82006491 127.61730852 373.12754581 119.73380172 373.17978227 C118.55328735 373.1795412 117.37277297 373.17930013 116.15648544 373.17905176 C112.35535653 373.18053819 108.55442656 373.19574043 104.75333297 373.21152055 C102.39851622 373.21446306 100.04369817 373.21650222 97.68887985 373.21762407 C88.98117754 373.22808734 80.27350328 373.25600986 71.56583297 373.28183305 C42.36083297 373.34370805 42.36083297 373.34370805 12.56583297 373.40683305 C12.56583297 296.18683305 12.56583297 218.96683305 12.56583297 139.40683305 C71.50333297 139.59433305 71.50333297 139.59433305 90.08121383 139.67709672 C95.59891914 139.68713289 95.59891914 139.68713289 101.11662948 139.69316423 C103.56541729 139.69775699 106.01419851 139.70827919 108.46294296 139.72355974 C112.18217314 139.74559885 115.90099038 139.74854837 119.62027633 139.74740922 C120.70272849 139.75820355 121.78518064 139.76899787 122.90043437 139.7801193 C130.57423377 139.74877056 137.68193868 138.86625253 143.94083297 134.09433305 C148.25876325 129.67359491 149.74439584 126.15605634 150.06583297 120.03183305 C149.86522273 113.01047442 147.02903012 108.9366031 142.25333297 104.03183305 C134.84781778 99.55407968 126.48743665 100.12091267 118.11661422 100.14804399 C116.76882381 100.14532969 115.42103489 100.14176631 114.07324874 100.13742387 C110.43276817 100.12834974 106.79240167 100.13182346 103.15191925 100.13818204 C99.33065899 100.14326791 95.50940809 100.13854343 91.68814743 100.13540971 C85.27268374 100.13177758 78.8572662 100.13654936 72.44180954 100.14609087 C65.03910296 100.15697397 57.63650658 100.15344786 50.23380268 100.14243805 C43.86243425 100.13334368 37.49109888 100.1320904 31.11972606 100.13731539 C27.32119525 100.14042329 23.52271612 100.14087704 19.72418869 100.13424242 C16.1519892 100.12843821 12.57993091 100.13252171 9.00774658 100.14403093 C7.08182867 100.14790951 5.15589873 100.14201815 3.22998703 100.13577592 C-8.59133531 100.09473698 -8.59133531 100.09473698 -18.74666703 105.53183305 Z M135.78287399 182.59872758 C134.36271959 184.34921536 134.36271959 184.34921536 134.54996383 186.61728227 C134.72922409 187.5146309 134.90848434 188.41197954 135.09317672 189.33652055 C135.30313278 190.40612016 135.51308883 191.47571977 135.72940719 192.57773149 C136.0054277 193.84133501 136.28144821 195.10493852 136.56583297 196.40683305 C136.7256163 197.14147783 136.88539962 197.8761226 137.05002487 198.63302934 C138.16349168 203.719468 139.32470582 208.793998 140.50699508 213.86484087 C141.13490581 216.56004591 141.75601301 219.25675768 142.37637985 221.95370805 C142.77377016 223.66994566 143.17154231 225.38609491 143.56973922 227.10214555 C143.75516784 227.90725572 143.94059646 228.71236589 144.13164413 229.54187334 C145.0376471 233.58018042 145.0376471 233.58018042 146.56583297 237.40683305 C145.38090255 237.39795061 144.19597213 237.38906816 142.97513473 237.37991655 C131.79341028 237.29873378 120.61174584 237.238821 109.42979324 237.19958436 C103.6813948 237.17873406 97.93323482 237.15046271 92.1849736 237.10507524 C86.63473317 237.06152693 81.08472171 237.03767671 75.53432357 237.02732408 C73.41967307 237.01994889 71.30503472 237.00554684 69.19048202 236.98391283 C66.22222729 236.95475984 63.25491159 236.95088207 60.2865361 236.95273149 C59.41762741 236.93835039 58.54871871 236.92396928 57.65347946 236.90915239 C50.88645385 236.95459883 45.655931 238.72132092 40.50723922 243.19589555 C36.62983415 248.35844622 35.10864478 252.91050777 35.56583297 259.40683305 C37.15358522 264.69934055 39.66425172 268.5052518 43.56583297 272.40683305 C49.21885015 275.44477267 53.82611772 275.82586903 60.17301071 275.74740922 C61.57905815 275.74806634 61.57905815 275.74806634 63.01351058 275.74873674 C66.09236584 275.74665724 69.17066733 275.72336565 72.24942672 275.6998018 C74.39176277 275.69420287 76.53410267 275.68993418 78.67644393 275.68693864 C84.30055082 275.67551333 89.92442333 275.64606592 95.54843795 275.6128267 C101.29313634 275.582076 107.03787279 275.56842262 112.78262985 275.55331743 C124.04380023 275.52119411 135.30479707 275.47002565 146.56583297 275.40683305 C146.30232543 276.38545808 146.0388179 277.36408311 145.76732528 278.37236345 C143.8916068 285.35835186 142.0322818 292.34196409 140.39005172 299.3873018 C140.21577148 300.13345247 140.04149124 300.87960313 139.86192977 301.64836442 C139.50354794 303.18934051 139.1466147 304.73065425 138.79117477 306.27231157 C138.42782709 307.84099054 138.06020323 309.40868426 137.68863571 310.97543657 C137.14271176 313.27741982 136.60874643 315.58188109 136.07755172 317.8873018 C135.90994842 318.58518312 135.74234512 319.28306444 135.56966293 320.00209367 C134.4729072 324.76866097 134.4729072 324.76866097 135.56583297 329.40683305 C136.22583297 330.06683305 136.88583297 330.72683305 137.56583297 331.40683305 C143.75657712 331.35801015 148.76152843 327.74653444 153.94083297 324.71933305 C154.95105514 324.13844926 155.96127731 323.55756547 157.00211227 322.95907915 C160.19605532 321.11853524 163.3817336 319.26434646 166.56583297 317.40683305 C168.54369019 316.2570808 170.52155461 315.10734093 172.49942672 313.9576143 C176.47124705 311.64512637 180.43930098 309.32630139 184.40567672 307.0044893 C190.73670314 303.30170313 197.08649872 299.6319437 203.44083297 295.96933305 C204.51792526 295.34832719 205.59501754 294.72732133 206.70474899 294.08749712 C212.20638265 290.91652198 217.70981433 287.74868695 223.21427047 284.5826143 C228.61534332 281.47554551 234.00833121 278.35471703 239.39981735 275.2310518 C242.59751716 273.38857702 245.8072599 271.56852536 249.01895797 269.75058305 C251.03483988 268.59478102 253.05047628 267.43855065 255.06583297 266.28183305 C255.99814743 265.7615352 256.93046188 265.24123735 257.89102829 264.7051729 C258.74277633 264.21226762 259.59452438 263.71936235 260.47208297 263.21152055 C261.21780563 262.78854692 261.96352829 262.36557329 262.7318486 261.92978227 C265.03033333 260.02110978 265.66638148 258.21673368 266.56583297 255.40683305 C263.22673329 251.84596502 260.05331915 249.28747916 255.79630172 246.9107393 C254.67288375 246.27716508 253.54946579 245.64359087 252.39200485 244.99081743 C251.79960006 244.66170366 251.20719528 244.33258989 250.59683883 243.99350297 C248.07138434 242.5904727 245.55611644 241.16960281 243.03998458 239.74994218 C241.74956077 239.02213263 240.45860306 238.29526889 239.16712081 237.56933916 C233.26126865 234.24757304 227.40888245 230.83777344 221.56583297 227.40683305 C212.34258191 222.00441158 203.07427058 216.68439609 193.78690231 211.3933748 C185.43456111 206.63389758 177.11259698 201.82523214 168.81583297 196.96933305 C165.94789973 195.29503683 163.07939373 193.62173047 160.21036422 191.94931352 C158.48806595 190.94474553 156.76666442 189.93863799 155.04630172 188.93075883 C152.80775086 187.62234234 150.56306142 186.32527159 148.31583297 185.03183305 C147.6780693 184.6561519 147.04030563 184.28047075 146.38321579 183.89340532 C141.21155235 180.91174979 141.21155235 180.91174979 135.78287399 182.59872758 Z " fill="#000000" transform="translate(135.43416702747345,-0.40683305263519287)"/>
</svg>
